<?xml version="1.0" encoding="UTF-8"?>
<!DOCTYPE svg PUBLIC "-//W3C//DTD SVG 1.1//EN" "http://www.w3.org/Graphics/SVG/1.1/DTD/svg11.dtd">
<!-- Creator: CorelDRAW -->
<svg xmlns="http://www.w3.org/2000/svg" xml:space="preserve" width="180mm" height="160mm" style="shape-rendering:geometricPrecision; text-rendering:geometricPrecision; image-rendering:optimizeQuality; fill-rule:evenodd; clip-rule:evenodd"
viewBox="0 0 180 160">
 <defs>
  <style type="text/css">
   <![CDATA[
    .fil0 {fill:#E7E8EA}
   ]]>
  </style>
 </defs>
 <g id="Ebene_x0020_1">
  <metadata id="CorelCorpID_0Corel-Layer"/>
  <path class="fil0" d="M29.1414 63.3411c-4.5516,-17.484 -0.9762,-47.6791 11.0506,-59.5199 9.556,-9.4083 19.3554,3.0376 30.7113,25.844 11.8184,-1.47 25.0817,-1.2186 36.8675,0.5988 11.4818,-23.1867 21.3689,-35.933 31.0081,-26.4428 12.1313,11.9437 15.6638,42.5618 10.9304,59.9743 3.2085,11.9457 2.2746,24.9644 0.7512,35.5476 6.6224,-1.5814 14.687,-2.2678 25.0105,-1.4493 -3.6603,10.8538 -7.6384,18.617 -19.8762,23.1441 12.3979,1.9318 17.4637,7.5602 22.1192,15.6231 -12.4983,7.2655 -17.798,7.5282 -27.7216,3.3505 3.6584,3.3588 6.8289,8.0702 6.8031,19.3265 -12.8276,0.0087 -21.4756,-1.6413 -27.9462,-8.9769 -23.5272,10.8448 -54.5418,11.3081 -77.8216,-0.4919 -6.4706,7.3355 -14.9956,9.4775 -27.8232,9.4688 -0.0258,-11.2563 3.1447,-15.9677 6.8031,-19.3265 -9.9236,4.1777 -15.2233,3.915 -27.7216,-3.3505 4.6555,-8.0629 9.7213,-13.6913 22.1192,-15.6231 -12.2378,-4.5271 -16.2159,-12.2903 -19.8762,-23.1441 9.2837,-0.7361 16.7406,-0.2551 22.9645,0.9986 -1.033,-12.6832 -1.0184,-24.9377 1.6479,-35.5513zm15.9324 -52.5227c-10.748,8.6204 -10.0059,50.0677 -1.9939,47.8012 5.2014,-1.4714 25.0404,-12.6176 24.0265,-20.4067 -1.425,-10.9483 -18.8995,-28.9912 -22.0326,-27.3945m44.6208 101.868c5.7647,0 10.7383,2.1223 10.7383,6.0281 0,3.9057 -4.8512,9.6209 -10.6158,9.6209 -5.7647,0 -10.8605,-5.7309 -10.8605,-9.6365 0,-3.9058 4.9735,-6.0125 10.738,-6.0125m43.8567 -101.868c10.748,8.6204 10.0059,50.0677 1.9939,47.8012 -5.2014,-1.4714 -25.0404,-12.6176 -24.0265,-20.4067 1.425,-10.9483 18.8995,-28.9912 22.0326,-27.3945z"/>
 </g>
</svg>
